# xmcd CD database file
#
# Track frame offsets:
#	182
#	27227
#	64065
#	121800
#	152077
#	181432
#	211677
#	219010
#
# Disc length: 3476 seconds
#
# Revision: 0
# Processed by: cddbd v1.5.1PL2 Copyright (c) Steve Scherf et al.
# Submitted via: CDex 1.51
#
DISCID=620d9208
DTITLE=Ivan Valentini - Senza famiglia
DYEAR=1900
DGENRE=Jazz
TTITLE0=Quick lunch
TTITLE1=The freak and his trumpet
TTITLE2=Senza famiglia
TTITLE3=Mister T.
TTITLE4=Alto madness
TTITLE5=Novembre
TTITLE6=I colori di J.Pollock
TTITLE7=La femme folle
EXTD=
EXTT0=
EXTT1=
EXTT2=
EXTT3=
EXTT4=
EXTT5=
EXTT6=
EXTT7=
PLAYORDER=
